<mxfile host="65bd71144e">
    <diagram id="2W8eC7e6MnIj1UGJG8wD" name="Page-1">
        <mxGraphModel dx="1008" dy="779" grid="1" gridSize="10" guides="1" tooltips="1" connect="1" arrows="1" fold="1" page="1" pageScale="1" pageWidth="827" pageHeight="1169" math="0" shadow="0">
            <root>
                <mxCell id="0"/>
                <mxCell id="1" parent="0"/>
                <mxCell id="9" value="FloodMitigations" style="rounded=1;whiteSpace=wrap;html=1;" parent="1" vertex="1">
                    <mxGeometry x="40" y="90" width="170" height="30" as="geometry"/>
                </mxCell>
                <mxCell id="10" value="FloodProblems" style="rounded=1;whiteSpace=wrap;html=1;" parent="1" vertex="1">
                    <mxGeometry x="40" y="140" width="170" height="30" as="geometry"/>
                </mxCell>
                <mxCell id="11" value="FloodReports" style="rounded=1;whiteSpace=wrap;html=1;" parent="1" vertex="1">
                    <mxGeometry x="40" y="320" width="170" height="30" as="geometry"/>
                </mxCell>
                <mxCell id="12" value="FloodResponsibilities" style="rounded=1;whiteSpace=wrap;html=1;" parent="1" vertex="1">
                    <mxGeometry x="40" y="190" width="170" height="30" as="geometry"/>
                </mxCell>
                <mxCell id="15" value="FloodImpacts" style="rounded=1;whiteSpace=wrap;html=1;" parent="1" vertex="1">
                    <mxGeometry x="40" y="40" width="170" height="30" as="geometry"/>
                </mxCell>
                <mxCell id="19" value="Organisations" style="rounded=1;whiteSpace=wrap;html=1;" parent="1" vertex="1">
                    <mxGeometry x="40" y="400" width="170" height="30" as="geometry"/>
                </mxCell>
                <mxCell id="20" value="RecordStatuses" style="rounded=1;whiteSpace=wrap;html=1;" parent="1" vertex="1">
                    <mxGeometry x="40" y="240" width="170" height="30" as="geometry"/>
                </mxCell>
            </root>
        </mxGraphModel>
    </diagram>
</mxfile>